<svg width="69" height="17" viewBox="0 0 69 17" fill="none" xmlns="http://www.w3.org/2000/svg">
<path d="M9.24047 10.12L7.56047 5.08L5.88047 10.12H9.24047ZM4.92047 13.12L3.96047 16H0.360469L5.76047 0.879999H9.36047L14.7605 16H11.1605L10.2005 13.12H4.92047ZM19.1967 16H15.9567V4.96H19.1967V16ZM15.8367 1.96C15.8367 1.48 16.0127 1.064 16.3647 0.711999C16.7327 0.343999 17.1567 0.159999 17.6367 0.159999C18.1167 0.159999 18.5327 0.343999 18.8847 0.711999C19.2527 1.064 19.4367 1.48 19.4367 1.96C19.4367 2.44 19.2527 2.864 18.8847 3.232C18.5327 3.584 18.1167 3.76 17.6367 3.76C17.1567 3.76 16.7327 3.584 16.3647 3.232C16.0127 2.864 15.8367 2.44 15.8367 1.96ZM32.3967 16H29.1567V8.44H25.7967V16H22.5567V8.44H21.1167V5.44H22.5567V4.84C22.5567 3.512 22.9007 2.504 23.5887 1.816C24.2767 1.112 25.2527 0.759999 26.5167 0.759999C26.7407 0.759999 26.9487 0.775999 27.1407 0.808C27.3327 0.823999 27.5007 0.847999 27.6447 0.879999C27.8047 0.927999 27.9487 0.967999 28.0767 1V3.88C27.9967 3.864 27.9167 3.848 27.8367 3.832C27.7567 3.816 27.6687 3.8 27.5727 3.784C27.4767 3.768 27.3647 3.76 27.2367 3.76C26.8207 3.76 26.4767 3.904 26.2047 4.192C25.9327 4.464 25.7967 4.84 25.7967 5.32V5.44H32.3967V16ZM29.0367 2.56C29.0367 2.08 29.2127 1.664 29.5647 1.312C29.9327 0.943999 30.3567 0.759999 30.8367 0.759999C31.3167 0.759999 31.7327 0.943999 32.0847 1.312C32.4527 1.664 32.6367 2.08 32.6367 2.56C32.6367 3.04 32.4527 3.464 32.0847 3.832C31.7327 4.184 31.3167 4.36 30.8367 4.36C30.3567 4.36 29.9327 4.184 29.5647 3.832C29.2127 3.464 29.0367 3.04 29.0367 2.56ZM38.272 16H35.032V0.879999H38.272V16ZM41.6405 7.96H39.9605V5.2H40.8005C41.6805 5.2 42.1205 4.76 42.1205 3.88V2.32H44.8805V4.96H47.1605V7.96H44.8805V11.56C44.8805 12.04 45.0165 12.424 45.2885 12.712C45.5605 12.984 45.9045 13.12 46.3205 13.12C46.4485 13.12 46.5605 13.12 46.6565 13.12C46.7525 13.104 46.8405 13.088 46.9205 13.072C47.0005 13.056 47.0805 13.032 47.1605 13V15.88C47.0325 15.928 46.8885 15.968 46.7285 16C46.4085 16.08 46.0325 16.12 45.6005 16.12C44.3365 16.12 43.3605 15.776 42.6725 15.088C41.9845 14.384 41.6405 13.368 41.6405 12.04V7.96ZM59.4117 12.76C59.2677 13.208 59.0517 13.64 58.7637 14.056C58.4757 14.472 58.1157 14.848 57.6837 15.184C57.2517 15.504 56.7477 15.76 56.1717 15.952C55.6117 16.144 54.9717 16.24 54.2517 16.24C53.4997 16.24 52.7877 16.096 52.1157 15.808C51.4597 15.504 50.8757 15.096 50.3637 14.584C49.8677 14.056 49.4677 13.448 49.1637 12.76C48.8757 12.056 48.7317 11.296 48.7317 10.48C48.7317 9.664 48.8757 8.912 49.1637 8.224C49.4677 7.52 49.8757 6.912 50.3877 6.4C50.8997 5.872 51.4917 5.464 52.1637 5.176C52.8517 4.872 53.5877 4.72 54.3717 4.72C55.1237 4.72 55.8277 4.856 56.4837 5.128C57.1397 5.4 57.7077 5.792 58.1877 6.304C58.6837 6.8 59.0677 7.408 59.3397 8.128C59.6277 8.832 59.7717 9.616 59.7717 10.48C59.7717 10.608 59.7637 10.736 59.7477 10.864C59.7317 10.976 59.7157 11.088 59.6997 11.2C59.6837 11.328 59.6677 11.448 59.6517 11.56H52.0917C52.2197 11.976 52.4757 12.36 52.8597 12.712C53.2597 13.064 53.7637 13.24 54.3717 13.24C54.6757 13.24 54.9317 13.208 55.1397 13.144C55.3637 13.064 55.5397 12.976 55.6677 12.88C55.8277 12.784 55.9557 12.664 56.0517 12.52L59.4117 12.76ZM54.3717 7.72C53.7637 7.72 53.2597 7.904 52.8597 8.272C52.4757 8.624 52.2197 9.04 52.0917 9.52H56.6517C56.5237 9.04 56.2597 8.624 55.8597 8.272C55.4757 7.904 54.9797 7.72 54.3717 7.72ZM67.0833 4.84C67.2273 4.84 67.3553 4.848 67.4673 4.864C67.5953 4.88 67.6993 4.896 67.7793 4.912C67.8753 4.928 67.9633 4.944 68.0433 4.96V8.32C67.9473 8.288 67.8353 8.248 67.7073 8.2C67.5953 8.168 67.4673 8.144 67.3233 8.128C67.1793 8.096 67.0193 8.08 66.8433 8.08C66.2353 8.08 65.7393 8.28 65.3553 8.68C64.9873 9.08 64.8033 9.64 64.8033 10.36V16H61.5633V4.96H63.9633L64.4433 6.16C64.6353 5.92 64.8673 5.704 65.1393 5.512C65.3633 5.336 65.6353 5.184 65.9553 5.056C66.2913 4.912 66.6673 4.84 67.0833 4.84Z" fill="black"/>
</svg>
